<svg width="24" height="24" viewBox="0 0 24 24" fill="none" xmlns="http://www.w3.org/2000/svg">
<path d="M12.75 4.5C12.5511 4.4998 12.3602 4.57863 12.2194 4.71914C12.0787 4.85965 11.9994 5.05034 11.9992 5.24925C11.9991 5.44816 12.0779 5.63901 12.2184 5.7798C12.3589 5.92059 12.5496 5.9998 12.7485 6H14.4915L15.4695 8.442L9.2775 9.6795L8.853 9H9C9.19891 9.0002 9.38976 8.92137 9.53055 8.78086C9.67134 8.64035 9.75055 8.44966 9.75075 8.25075C9.75095 8.05184 9.67212 7.86099 9.53161 7.7202C9.3911 7.57941 9.20041 7.5002 9.0015 7.5H6C5.80109 7.5 5.61032 7.57902 5.46967 7.71967C5.32902 7.86032 5.25 8.05109 5.25 8.25C5.25 8.44891 5.32902 8.63968 5.46967 8.78033C5.61032 8.92098 5.80109 9 6 9H7.0845L10.6065 14.637C10.6722 14.7463 10.7646 14.837 10.8751 14.9006C10.9855 14.9642 11.1104 14.9986 11.2378 15.0005C11.3653 15.0025 11.4911 14.9719 11.6035 14.9117C11.7159 14.8515 11.811 14.7637 11.88 14.6565L14.868 10.1745L14.9235 10.08L16.6335 9.738C16.7443 9.71795 16.8492 9.6732 16.9404 9.60706C17.0316 9.54092 17.1067 9.45509 17.1602 9.35595C17.2136 9.25681 17.2441 9.1469 17.2492 9.03438C17.2544 8.92186 17.2341 8.80962 17.19 8.706L15.7035 4.9875C15.65 4.84419 15.5539 4.72068 15.4281 4.63355C15.3024 4.54641 15.153 4.49981 15 4.5H12.75ZM10.128 11.04L12.852 10.494L11.271 12.867L10.128 11.04ZM5.25 10.5C4.25544 10.5 3.30161 10.8951 2.59835 11.5984C1.89509 12.3016 1.5 13.2554 1.5 14.25C1.5 15.2446 1.89509 16.1984 2.59835 16.9017C3.30161 17.6049 4.25544 18 5.25 18C6.24456 18 7.19839 17.6049 7.90165 16.9017C8.60491 16.1984 9 15.2446 9 14.25C9 13.2554 8.60491 12.3016 7.90165 11.5984C7.19839 10.8951 6.24456 10.5 5.25 10.5ZM3 14.25C3.0001 13.9544 3.05841 13.6618 3.17162 13.3887C3.28482 13.1157 3.45069 12.8676 3.65976 12.6587C3.86883 12.4498 4.11701 12.2841 4.39012 12.171C4.66323 12.058 4.95593 11.9999 5.2515 12C5.54707 12.0001 5.83973 12.0584 6.11277 12.1716C6.3858 12.2848 6.63387 12.4507 6.8428 12.6598C7.05173 12.8688 7.21744 13.117 7.33046 13.3901C7.44348 13.6632 7.5016 13.9559 7.5015 14.2515C7.5013 14.8484 7.26398 15.4208 6.84174 15.8428C6.4195 16.2648 5.84694 16.5017 5.25 16.5015C4.65306 16.5013 4.08066 16.264 3.6587 15.8417C3.23674 15.4195 2.9998 14.8469 3 14.25ZM17.25 10.5C16.2554 10.5 15.3016 10.8951 14.5983 11.5984C13.8951 12.3016 13.5 13.2554 13.5 14.25C13.5 15.2446 13.8951 16.1984 14.5983 16.9017C15.3016 17.6049 16.2554 18 17.25 18C18.2446 18 19.1984 17.6049 19.9016 16.9017C20.6049 16.1984 21 15.2446 21 14.25C21 13.2554 20.6049 12.3016 19.9016 11.5984C19.1984 10.8951 18.2446 10.5 17.25 10.5ZM15 14.25C15.0002 13.6531 15.2375 13.0807 15.6598 12.6587C15.8688 12.4498 16.117 12.2841 16.3901 12.171C16.6632 12.058 16.9559 11.9999 17.2515 12C17.5471 12.0001 17.8397 12.0584 18.1128 12.1716C18.3858 12.2848 18.6339 12.4507 18.8428 12.6598C19.0517 12.8688 19.2174 13.117 19.3305 13.3901C19.4435 13.6632 19.5016 13.9559 19.5015 14.2515C19.5013 14.8484 19.264 15.4208 18.8417 15.8428C18.4195 16.2648 17.8469 16.5017 17.25 16.5015C16.6531 16.5013 16.0807 16.264 15.6587 15.8417C15.2367 15.4195 14.9998 14.8469 15 14.25Z" fill="black"/>
</svg>
