<svg width="24" height="24" viewBox="0 0 24 24" fill="none" xmlns="http://www.w3.org/2000/svg">
<path d="M21.3428 15.9326C21.6112 15.6647 22.0461 15.6646 22.3145 15.9326L22.5049 16.123C22.7728 16.3914 22.7728 16.8263 22.5049 17.0947L17.2998 22.3096C17.031 22.5788 16.5947 22.5781 16.3262 22.3086L14.2129 20.1885C13.9453 19.9198 13.9457 19.4849 14.2139 19.2168L14.4043 19.0264C14.6723 18.7584 15.1073 18.7572 15.376 19.0244L16.5205 20.1641C16.6816 20.3243 16.9427 20.3236 17.1035 20.1631L21.3428 15.9326ZM6.6377 0.862305V2.2373H17.3623V0.862305H19.0127V2.2373H21C22.1805 2.2373 23.1377 3.19449 23.1377 4.375V12.6875C23.1377 13.1431 22.7681 13.5127 22.3125 13.5127C21.8569 13.5127 21.4873 13.1431 21.4873 12.6875V8.79199C21.4873 8.36167 21.1383 8.0127 20.708 8.0127H3.29199C2.86167 8.0127 2.5127 8.36167 2.5127 8.79199V19.333C2.5127 19.7633 2.86167 20.1123 3.29199 20.1123H11.3125C11.7681 20.1123 12.1377 20.4819 12.1377 20.9375C12.1377 21.3931 11.7681 21.7627 11.3125 21.7627H3C1.81949 21.7627 0.862305 20.8055 0.862305 19.625V4.375C0.862305 3.19449 1.81949 2.2373 3 2.2373H4.9873V0.862305H6.6377ZM3.29199 3.8877C2.86167 3.8877 2.5127 4.23667 2.5127 4.66699V5.58301C2.5127 6.01333 2.86167 6.3623 3.29199 6.3623H20.708C21.1383 6.3623 21.4873 6.01333 21.4873 5.58301V4.66699C21.4873 4.23667 21.1383 3.8877 20.708 3.8877H19.0127V4.4375C19.0127 4.89313 18.6431 5.2627 18.1875 5.2627C17.7319 5.2627 17.3623 4.89313 17.3623 4.4375V3.8877H6.6377V4.4375C6.6377 4.89313 6.26814 5.2627 5.8125 5.2627C5.35686 5.2627 4.9873 4.89313 4.9873 4.4375V3.8877H3.29199Z" fill="black" stroke="black" stroke-width="0.275"/>
</svg>
