<svg width="20" height="20" viewBox="0 0 20 20" fill="none" xmlns="http://www.w3.org/2000/svg">
<path d="M17 4.66045e-09C17.7652 -4.26217e-05 18.5015 0.292325 19.0583 0.817284C19.615 1.34224 19.9501 2.06011 19.995 2.824L20 3V4.817C19.9977 5.08708 19.925 5.35189 19.7888 5.58518C19.6527 5.81847 19.458 6.01214 19.224 6.147L19.117 6.205C18.7935 6.3638 18.5189 6.60707 18.3222 6.9091C18.1256 7.21112 18.0142 7.56067 17.9998 7.92079C17.9855 8.28091 18.0687 8.63821 18.2407 8.95492C18.4127 9.27163 18.6671 9.53597 18.977 9.72L19.117 9.795C19.55 10.009 19.937 10.451 19.993 11.035L20 11.183V13C20 13.7652 19.7077 14.5015 19.1827 15.0583C18.6578 15.615 17.9399 15.9501 17.176 15.995L17 16H3C2.23479 16 1.49849 15.7077 0.941739 15.1827C0.384993 14.6578 0.0498925 13.9399 0.00500012 13.176L4.66045e-09 13V11.183C4.66045e-09 10.577 0.352 10.105 0.776 9.853L0.883 9.795C1.20653 9.6362 1.48114 9.39293 1.67779 9.0909C1.87445 8.78888 1.98583 8.43933 2.00017 8.07921C2.01452 7.71909 1.93129 7.36179 1.75928 7.04508C1.58727 6.72837 1.33288 6.46403 1.023 6.28L0.883 6.205C0.45 5.991 0.063 5.549 0.00699997 4.965L4.66045e-09 4.818V3C-4.26217e-05 2.23479 0.292325 1.49849 0.817284 0.941739C1.34224 0.384993 2.06011 0.0498925 2.824 0.00500012L3 4.66045e-09H17ZM17 2H3C2.75507 2.00003 2.51866 2.08996 2.33563 2.25272C2.15259 2.41547 2.03566 2.63975 2.007 2.883L2 3V4.535C2.59245 4.87679 3.08737 5.36479 3.43746 5.95238C3.78755 6.53997 3.98112 7.20751 3.99967 7.89124C4.01823 8.57496 3.86116 9.25202 3.54346 9.85773C3.22575 10.4634 2.75804 10.9776 2.185 11.351L2 11.465V13C2.00003 13.2449 2.08996 13.4813 2.25272 13.6644C2.41547 13.8474 2.63975 13.9643 2.883 13.993L3 14H17C17.2449 14 17.4813 13.91 17.6644 13.7473C17.8474 13.5845 17.9643 13.3603 17.993 13.117L18 13V11.465C17.4075 11.1232 16.9126 10.6352 16.5625 10.0476C16.2125 9.46003 16.0189 8.79249 16.0003 8.10876C15.9818 7.42504 16.1388 6.74798 16.4565 6.14227C16.7742 5.53655 17.242 5.02243 17.815 4.649L18 4.535V3C18 2.75507 17.91 2.51866 17.7473 2.33563C17.5845 2.15259 17.3603 2.03566 17.117 2.007L17 2Z" fill="black"/>
<path d="M8.66437 5.25272C8.48134 5.08996 8.24493 5.00003 8 5C7.73478 5 7.48043 5.10536 7.29289 5.29289C7.10536 5.48043 7 5.73478 7 6V10L7.007 10.117C7.0371 10.3701 7.16271 10.6021 7.35817 10.7657C7.55362 10.9293 7.80416 11.0121 8.05861 10.9972C8.31305 10.9822 8.55218 10.8707 8.72715 10.6854C8.90212 10.5 8.99972 10.2549 9 10V6L8.993 5.883C8.96434 5.63975 8.84741 5.41547 8.66437 5.25272Z" fill="black"/>
<path d="M13.6644 5.25272C13.4813 5.08996 13.2449 5.00003 13 5C12.7348 5 12.4804 5.10536 12.2929 5.29289C12.1054 5.48043 12 5.73478 12 6V10L12.007 10.117C12.0371 10.3701 12.1627 10.6021 12.3582 10.7657C12.5536 10.9293 12.8042 11.0121 13.0586 10.9972C13.313 10.9822 13.5522 10.8707 13.7272 10.6854C13.9021 10.5 13.9997 10.2549 14 10V6L13.993 5.883C13.9643 5.63975 13.8474 5.41547 13.6644 5.25272Z" fill="black"/>
</svg>
