<svg width="24" height="24" viewBox="0 0 24 24" fill="none" xmlns="http://www.w3.org/2000/svg">
<path fill-rule="evenodd" clip-rule="evenodd" d="M0.848396 7.296C0.81447 7.14196 0.811248 6.98273 0.838915 6.82744C0.866581 6.67214 0.924594 6.52383 1.00963 6.39097C1.09467 6.25812 1.20507 6.14334 1.33451 6.05319C1.46395 5.96304 1.6099 5.8993 1.764 5.8656L19.3476 2.016C19.6584 1.9482 19.9833 2.00655 20.2511 2.17824C20.5189 2.34992 20.7075 2.62089 20.7756 2.9316L21.546 6.4476C21.5799 6.60165 21.5831 6.76088 21.5555 6.91617C21.5278 7.07147 21.4698 7.21978 21.3848 7.35263C21.2997 7.48549 21.1893 7.60027 21.0599 7.69042C20.9304 7.78057 20.7845 7.84431 20.6304 7.878L3.048 11.7276C2.73723 11.7954 2.41225 11.7371 2.14449 11.5654C1.87672 11.3937 1.68807 11.1227 1.62 10.812L0.848396 7.296ZM3.45 7.9536L3.7056 9.126L18.9456 5.79L18.6888 4.6176L3.45 7.9536Z" fill="black"/>
<path fill-rule="evenodd" clip-rule="evenodd" d="M11.9218 9.23761L8.80656 6.23401L10.4734 4.50601L13.5874 7.50961L11.9218 9.23761ZM7.23216 10.2636L4.11816 7.26001L5.78376 5.53201L8.89776 8.53681L7.23216 10.2636ZM16.6102 8.21041L13.4962 5.20801L15.1618 3.48001L18.2758 6.48481L16.6102 8.21041ZM11.7982 15.066L14.1982 11.466L12.2014 10.134L9.80136 13.734L11.7982 15.066ZM16.5982 15.066L18.9982 11.466L17.0014 10.134L14.6014 13.734L16.5982 15.066ZM6.99816 15.066L9.39816 11.466L7.40136 10.134L5.00136 13.734L6.99816 15.066Z" fill="black"/>
<path fill-rule="evenodd" clip-rule="evenodd" d="M1.7998 10.8C1.7998 10.4817 1.92623 10.1765 2.15128 9.95148C2.37632 9.72643 2.68154 9.60001 2.9998 9.60001H20.9998C21.3181 9.60001 21.6233 9.72643 21.8483 9.95148C22.0734 10.1765 22.1998 10.4817 22.1998 10.8V21.6C22.1998 21.9183 22.0734 22.2235 21.8483 22.4485C21.6233 22.6736 21.3181 22.8 20.9998 22.8H2.9998C2.68154 22.8 2.37632 22.6736 2.15128 22.4485C1.92623 22.2235 1.7998 21.9183 1.7998 21.6V10.8ZM4.1998 12V20.4H19.7998V12H4.1998Z" fill="black"/>
<path fill-rule="evenodd" clip-rule="evenodd" d="M21.6004 15.6H2.40039V13.2H21.6004V15.6Z" fill="black"/>
</svg>
