<svg width="24" height="24" viewBox="0 0 24 24" fill="none" xmlns="http://www.w3.org/2000/svg">
<path d="M8.10963 19.45C7.00405 19.0426 6.02019 18.3608 5.25051 17.4687C4.48083 16.5765 3.9506 15.5034 3.70964 14.35L2.04964 6.54001C1.80964 5.46001 2.49964 4.40001 3.57964 4.17001L13.3496 2.10001L13.3796 2.09001C14.4496 1.88001 15.4996 2.57001 15.7196 3.63001L16.0696 5.30001L20.4196 6.23001H20.4496C21.4996 6.47001 22.1796 7.53001 21.9596 8.59001L20.2996 16.41C20.108 17.3083 19.7413 18.1601 19.2205 18.9166C18.6997 19.6732 18.0349 20.3198 17.2641 20.8194C16.4934 21.319 15.6317 21.6618 14.7284 21.8284C13.8251 21.9949 12.8979 21.9819 11.9996 21.79C10.4762 21.4711 9.10526 20.6464 8.10963 19.45ZM19.9996 8.18001L10.2296 6.10001L8.56963 13.92V13.95C7.99963 16.63 9.72964 19.27 12.4196 19.84C15.1096 20.41 17.7696 18.69 18.3396 16L19.9996 8.18001ZM15.9996 16.5C15.6839 17.035 15.2079 17.4572 14.639 17.7067C14.0701 17.9561 13.437 18.0203 12.8296 17.89C12.2239 17.761 11.6736 17.4458 11.2558 16.9886C10.838 16.5313 10.5736 15.9549 10.4996 15.34L15.9996 16.5ZM8.46964 5.17001L3.99964 6.13001L5.65964 13.94L5.66964 13.97C5.81964 14.68 6.11964 15.32 6.52964 15.87C6.42964 15.1 6.44964 14.3 6.61964 13.5L7.04964 11.5C6.59964 11.42 6.20964 11.17 5.99964 10.81C6.05964 10.2 6.55964 9.66001 7.24964 9.50001H7.49964L8.27963 5.69001C8.31963 5.50001 8.37964 5.33001 8.46964 5.17001ZM15.0296 12.23C15.3496 11.7 16.0296 11.42 16.7196 11.57C17.4096 11.71 17.9096 12.24 17.9996 12.86C17.6696 13.38 16.9996 13.66 16.2996 13.5C15.6096 13.37 15.1096 12.84 15.0296 12.23ZM10.1496 11.19C10.4696 10.66 11.1396 10.38 11.8296 10.53C12.4996 10.67 13.0296 11.21 13.1096 11.82C12.7796 12.34 12.1096 12.63 11.4196 12.5C10.7296 12.33 10.2296 11.8 10.1496 11.19ZM11.9696 4.43001L13.9296 4.85001L13.7696 4.05001L11.9696 4.43001Z" fill="black"/>
</svg>
