<svg width="24" height="24" viewBox="0 0 24 24" fill="none" xmlns="http://www.w3.org/2000/svg">
<path d="M11.467 20.82C11.6202 20.9366 11.8075 20.9998 12 20.9998C12.1926 20.9998 12.3798 20.9366 12.533 20.82C14.168 19.593 19 15.586 19 11.016V6.086C19.001 5.95883 18.9549 5.8358 18.8705 5.74067C18.7861 5.64555 18.6694 5.5851 18.543 5.571C16.5407 5.36591 14.6216 4.6625 12.961 3.525L12.351 3.108C12.2477 3.03705 12.1253 2.99908 12 2.99908C11.8747 2.99908 11.7523 3.03705 11.649 3.108L11.039 3.525C9.37843 4.6625 7.45936 5.36591 5.45702 5.571C5.33063 5.5851 5.21395 5.64555 5.12954 5.74067C5.04513 5.8358 4.99899 5.95883 5.00002 6.086V11.016C5.00002 15.586 9.83202 19.593 11.467 20.818" stroke="black" stroke-width="1.6" stroke-linecap="round" stroke-linejoin="round"/>
<path d="M9 10.9091L11.404 13.3131C11.4821 13.3912 11.6088 13.3912 11.6869 13.3131L16 9" stroke="black" stroke-width="1.6" stroke-linecap="round"/>
</svg>
